<?xml version="1.0" encoding="UTF-8"?>
<!DOCTYPE svg PUBLIC "-//W3C//DTD SVG 1.1//EN" "http://www.w3.org/Graphics/SVG/1.1/DTD/svg11.dtd">
<!-- Creator: CorelDRAW 2020 (64-Bit) -->
<svg xmlns="http://www.w3.org/2000/svg" xml:space="preserve" width="4.4762mm" height="4.4762mm" version="1.1" style="shape-rendering:geometricPrecision; text-rendering:geometricPrecision; image-rendering:optimizeQuality; fill-rule:evenodd; clip-rule:evenodd"
viewBox="0 0 489.26 489.26"
 xmlns:xlink="http://www.w3.org/1999/xlink"
 xmlns:xodm="http://www.corel.com/coreldraw/odm/2003">
 <defs>
  <style type="text/css">
   <![CDATA[
    .str1 {stroke:#336666;stroke-width:9.26;stroke-miterlimit:22.9256}
    .str2 {stroke:white;stroke-width:21.86;stroke-miterlimit:22.9256}
    .str0 {stroke:#336666;stroke-width:21.92;stroke-miterlimit:22.9256}
    .fil1 {fill:#1FB0BA}
    .fil2 {fill:#FEFEFF}
    .fil0 {fill:white}
    .fil3 {fill:white}
   ]]>
  </style>
 </defs>
 <g id="Capa_x0020_1">
  <metadata id="CorelCorpID_0Corel-Layer"/>
  <g id="_1482387782976">
   <circle class="fil0 str0" cx="244.63" cy="244.63" r="233.67"/>
   <g>
    <path class="fil1 str1" d="M225.41 176.45c8.7,-14.43 12.5,-22.08 27.22,-30.08 13.46,-7.32 30.55,-9.85 47.15,-5 21.62,6.34 36.87,25.62 40.55,45.65 2.01,10.88 -0.95,16.85 -0.82,26.43 5.73,2.56 12.87,3.41 19.46,6.67 27.81,13.72 33.97,61.82 -4.01,79.09 -12.56,5.72 -43.21,1.75 -47.1,3.95 -0.83,0.72 -0.7,2.1 -0.72,2.48l0.62 6.82c1.05,11.53 -3.89,10.81 33.08,9.73 8.98,-0.26 18.13,-2.94 25.09,-6.37 49.51,-24.39 46.15,-96.94 -5.05,-116.31 -0.91,-11.99 -0.64,-17.11 -4.42,-28.03 -19.24,-55.59 -91.98,-69.74 -131.94,-28.29 -2.63,2.74 -4.42,5.49 -7.24,8.51 -8.94,-0.34 -18.79,-6.94 -42.46,1.66 -18.17,6.59 -30.9,19.96 -37.91,36.31 -6.28,14.66 -0.01,11.67 -7.77,16.58 -47.15,29.83 -34.62,103.78 22.77,114.79 6.92,1.32 40.49,2.22 46.69,0.85 0.68,-2.6 0.85,-6.33 1.14,-9.41 0.2,-2.19 1.62,-7.67 -0.09,-9.24 -2.62,-1.83 -39.28,0.11 -47.8,-2.11 -27.18,-7.1 -40.15,-38.17 -27.09,-61.8 9.57,-17.32 21.83,-19.23 25.19,-21.65 5.22,-3.76 -3.26,-25.7 24.68,-42.67 25.24,-15.35 45.63,1.41 50.77,1.43z"/>
    <path class="fil1 str1" d="M248.01 310.6c5.84,5.66 17.48,1.06 20.99,11.27 1.64,4.75 0.27,9.7 -2.13,12.78 -2.82,3.6 -6.09,3.52 -10.94,5.12 0,3.13 0.45,6.18 -0.78,8.7 -5.98,1.42 -3.53,-2.94 -4.27,-7.18 -0.62,-3.59 -3.68,-1.17 -9.83,-4.54 -2.38,-1.3 -5.37,-4.6 -1.48,-7.63 4,-2.14 7.36,1.9 12.1,2.45 5.22,0.59 9.68,-1.08 8.42,-6.26 -1.98,-5.39 -16.16,-1.16 -20.57,-10.67 -1.95,-4.19 -1.14,-9.32 1.01,-12.58 2.56,-3.88 5.41,-4.6 10.38,-5.73l0.39 -7.61 4.08 -0.2 0.74 7.77c3.36,1.19 5.8,0.63 8.88,2.78 3.19,2.22 3.07,6.86 -0.95,7.38 -3.53,0.46 -17.84,-7.19 -16.03,4.15zm-37.92 -36.51c-1.24,6.8 -4.11,59.29 -4.85,70.86 -1.2,18.63 -4.72,25.1 10.17,25.04 12.47,-0.05 24.95,-0.01 37.44,-0.01 57.79,0 51.39,4.65 49.48,-23.99 -1.56,-23.33 -3.44,-47.07 -4.61,-70.38 -3.51,-0.12 -7.95,1.07 -11.78,1.32 -4.35,0.27 -8.14,0.4 -12.52,0.2 -7.71,-0.38 -15.08,-1.71 -21.74,-3.99 -14.13,-4.85 -4.56,-5.28 -18.72,-1.71 -8.84,2.23 -13.66,2.07 -22.86,2.66z"/>
    <path class="fil2 str1" d="M248.01 310.6c-1.8,-11.35 12.5,-3.69 16.03,-4.15 4.02,-0.51 4.14,-5.16 0.95,-7.38 -3.07,-2.14 -5.52,-1.58 -8.88,-2.78l-0.74 -7.77 -4.08 0.2 -0.39 7.61c-4.97,1.13 -7.83,1.85 -10.38,5.73 -2.14,3.26 -2.95,8.39 -1.01,12.58 4.42,9.51 18.59,5.28 20.57,10.67 1.27,5.18 -3.19,6.85 -8.42,6.26 -4.74,-0.55 -8.1,-4.59 -12.1,-2.45 -3.89,3.03 -0.91,6.33 1.48,7.63 6.14,3.37 9.2,0.95 9.83,4.54 0.74,4.24 -1.71,8.6 4.27,7.18 1.22,-2.52 0.78,-5.57 0.78,-8.7 4.85,-1.6 8.12,-1.52 10.94,-5.12 2.4,-3.08 3.77,-8.02 2.13,-12.78 -3.51,-10.21 -15.15,-5.61 -20.99,-11.27z"/>
   </g>
   <ellipse class="fil3 str2" cx="182.17" cy="319.35" rx="4.62" ry="24.77"/>
   <ellipse class="fil3 str2" cx="323.56" cy="313.29" rx="7.76" ry="24.7"/>
  </g>
 </g>
</svg>
