<?xml version="1.0" encoding="UTF-8"?>
<!DOCTYPE svg PUBLIC "-//W3C//DTD SVG 1.1//EN" "http://www.w3.org/Graphics/SVG/1.1/DTD/svg11.dtd">
<!-- Creator: CorelDRAW 2020 (64-Bit) -->
<svg xmlns="http://www.w3.org/2000/svg" xml:space="preserve" width="4.4759mm" height="4.4761mm" version="1.1" style="shape-rendering:geometricPrecision; text-rendering:geometricPrecision; image-rendering:optimizeQuality; fill-rule:evenodd; clip-rule:evenodd"
viewBox="0 0 19.2 19.2"
 xmlns:xlink="http://www.w3.org/1999/xlink"
 xmlns:xodm="http://www.corel.com/coreldraw/odm/2003">
 <defs>
  <style type="text/css">
   <![CDATA[
    .str0 {stroke:#336666;stroke-width:0.86;stroke-miterlimit:22.9256}
    .fil1 {fill:#1FB0BA}
    .fil0 {fill:white}
   ]]>
  </style>
 </defs>
 <g id="Capa_x0020_1">
  <metadata id="CorelCorpID_0Corel-Layer"/>
  <g id="_1482268326592">
   <path class="fil0 str0" d="M5.67 12.06l1.44 -1.43c0.1,0.07 1.06,1.05 1.24,1.23l1.24 1.24 2.48 -2.47 1.44 1.43 -3.92 3.93 -3.92 -3.93zm7.43 -2.45l1.43 -1.44 1.45 1.44 -1.45 1.45 -1.43 -1.44zm-4.97 -0.01l1.46 -1.46 1.46 1.46 -1.46 1.46 -1.46 -1.46zm-4.93 -0l1.45 -1.44 1.43 1.44 -1.43 1.44 -1.45 -1.44zm6.39 -6.39l3.91 3.93 -1.43 1.43c-0.13,-0.09 -1.61,-1.61 -1.86,-1.85 -0.17,-0.17 -0.45,-0.48 -0.62,-0.62l-1.86 1.86c-0.14,0.14 -0.49,0.52 -0.62,0.61l-1.43 -1.44 3.91 -3.91zm-9.16 6.66c0.02,1.77 0.74,3.81 1.76,5.13 0.29,0.37 0.71,0.91 1.06,1.22 0.42,0.38 0.79,0.7 1.29,1.02 2.67,1.73 6.11,2.06 9.02,0.63 1.23,-0.6 2.37,-1.46 3.21,-2.54 2.68,-3.46 2.68,-8.02 0,-11.45l-0.4 -0.46c-0.78,-0.91 -2.04,-1.78 -3.18,-2.25 -1.17,-0.48 -2.46,-0.77 -3.85,-0.72 -1.83,0.07 -3.77,0.71 -5.13,1.75 -0.12,0.09 -0.21,0.16 -0.33,0.25 -0.24,0.18 -0.3,0.26 -0.46,0.4 -0.19,0.17 -0.24,0.2 -0.43,0.41 -1.71,1.87 -2.58,3.96 -2.54,6.62z"/>
   <g>
    <path class="fil1" d="M13.51 7.14l-3.92 -3.93 -3.91 3.91 1.43 1.44c0.13,-0.08 0.48,-0.46 0.62,-0.61l1.86 -1.86c0.17,0.13 0.45,0.44 0.62,0.62 0.25,0.25 1.73,1.76 1.86,1.85l1.43 -1.43z"/>
    <polygon class="fil1" points="14.53,8.17 13.1,9.61 14.53,11.05 15.98,9.6 "/>
    <polygon class="fil1" points="11.05,9.6 9.59,8.14 8.14,9.6 9.6,11.06 "/>
    <polygon class="fil1" points="6.08,9.59 4.66,8.15 3.21,9.6 4.66,11.03 "/>
    <path class="fil1" d="M7.11 10.63l-1.44 1.43 3.92 3.93 3.92 -3.93 -1.44 -1.43 -2.48 2.47 -1.24 -1.24c-0.17,-0.17 -1.13,-1.16 -1.24,-1.23z"/>
   </g>
  </g>
 </g>
</svg>
