<?xml version="1.0" encoding="UTF-8"?>
<!DOCTYPE svg PUBLIC "-//W3C//DTD SVG 1.1//EN" "http://www.w3.org/Graphics/SVG/1.1/DTD/svg11.dtd">
<!-- Creator: CorelDRAW 2020 (64-Bit) -->
<svg xmlns="http://www.w3.org/2000/svg" xml:space="preserve" width="4.4763mm" height="4.4763mm" version="1.1" style="shape-rendering:geometricPrecision; text-rendering:geometricPrecision; image-rendering:optimizeQuality; fill-rule:evenodd; clip-rule:evenodd"
viewBox="0 0 19.2 19.2"
 xmlns:xlink="http://www.w3.org/1999/xlink"
 xmlns:xodm="http://www.corel.com/coreldraw/odm/2003">
 <defs>
  <style type="text/css">
   <![CDATA[
    .str0 {stroke:#336666;stroke-width:0.86;stroke-miterlimit:22.9256}
    .fil1 {fill:#1FB0BA}
    .fil0 {fill:white}
   ]]>
  </style>
 </defs>
 <g id="Capa_x0020_1">
  <metadata id="CorelCorpID_0Corel-Layer"/>
  <g id="_1482268300432">
   <circle class="fil0 str0" cx="9.6" cy="9.6" r="9.17"/>
   <g>
    <path class="fil1 str0" d="M4.47 14.54c0.11,-0.12 0.32,-0.68 0.42,-0.88 0.14,-0.29 0.32,-0.55 0.48,-0.81 0.24,-0.39 0.78,-1.2 1.04,-1.54 0.2,-0.25 0.37,-0.49 0.57,-0.72l0.6 -0.69c0.21,-0.25 1.11,-1.14 1.29,-1.31 0.06,-0.06 0.09,-0.09 0.16,-0.16l0.52 -0.46c1.04,-0.96 2.95,-1.82 4.34,-2.13 0.17,-0.04 0.35,-0.08 0.54,-0.11 0.46,-0.08 0.76,-0.07 0.44,-0.54 -0.54,-0.79 -1.64,-0.56 -2.43,-0.3 -1.06,0.35 -2.38,1.21 -3.2,1.96 -0.11,0.1 -0.23,0.2 -0.34,0.3l-1.45 1.47c-0.72,0.81 -1.22,1.36 -1.85,2.37 -0.45,0.71 -1.03,1.74 -1.27,2.6 -0.09,0.32 -0.16,0.5 -0.06,0.81 0.03,0.08 0.1,0.13 0.21,0.13z"/>
    <path class="fil1 str0" d="M4.84 5.6c0.05,0.39 0.14,0.81 0.21,1.2 0.07,0.39 0.14,0.79 0.22,1.18 0.05,0.23 0.26,1.64 0.53,1.56 0.28,-0.08 0.92,-2.2 -0.33,-3.77 -0.1,-0.12 -0.39,-0.51 -0.58,-0.46 -0.1,0.03 -0.06,0.19 -0.05,0.29z"/>
   </g>
  </g>
 </g>
</svg>
