<?xml version="1.0" encoding="UTF-8"?>
<!DOCTYPE svg PUBLIC "-//W3C//DTD SVG 1.1//EN" "http://www.w3.org/Graphics/SVG/1.1/DTD/svg11.dtd">
<!-- Creator: CorelDRAW 2020 (64-Bit) -->
<svg xmlns="http://www.w3.org/2000/svg" xml:space="preserve" width="4.4763mm" height="4.4762mm" version="1.1" style="shape-rendering:geometricPrecision; text-rendering:geometricPrecision; image-rendering:optimizeQuality; fill-rule:evenodd; clip-rule:evenodd"
viewBox="0 0 19.2 19.2"
 xmlns:xlink="http://www.w3.org/1999/xlink"
 xmlns:xodm="http://www.corel.com/coreldraw/odm/2003">
 <defs>
  <style type="text/css">
   <![CDATA[
    .str0 {stroke:#336666;stroke-width:0.86;stroke-miterlimit:22.9256}
    .fil3 {fill:none}
    .fil2 {fill:#000003}
    .fil1 {fill:#1FB0BA}
    .fil5 {fill:#336666}
    .fil4 {fill:#FEFEFE}
    .fil0 {fill:white}
   ]]>
  </style>
 </defs>
 <g id="Capa_x0020_1">
  <metadata id="CorelCorpID_0Corel-Layer"/>
  <g id="_1482268331776">
   <circle class="fil0 str0" cx="9.6" cy="9.6" r="9.17"/>
   <g>
    <path class="fil1" d="M9.94 5.18c0.07,0.23 0.53,0.93 -0.25,1.41 -0.22,0.13 -0.43,0.24 -0.66,0.37 -0.33,0.2 -0.46,0.18 -0.88,0.13 -0.05,0.16 -0.19,0.41 -0.28,0.54 -0.96,1.44 -2.32,1.89 -4.15,1.79 0.04,0.08 0.47,0.5 0.61,0.66l1.94 2.01c0.28,0.31 0.26,0.32 1.02,0.3 1.67,-0.05 2.92,-0.74 3.67,-2.22 0.11,-0.22 0.17,-0.25 0.06,-0.46 -0.23,-0.42 -0.13,-0.64 0.01,-1.05 0.22,-0.66 0.37,-1.39 1.43,-1.07 0.17,0.05 0.33,0.11 0.48,0.18 0.17,0.08 0.29,0.2 0.47,0.13 0.76,-0.26 1.46,-0.35 2.33,-0.31 -0.06,-0.14 -2.03,-2.12 -2.27,-2.38 -0.09,-0.1 -0.44,-0.53 -0.58,-0.56 -0.22,-0.05 -0.89,-0.01 -1.14,0.02 -0.7,0.08 -1.23,0.25 -1.8,0.52z"/>
    <g>
     <path class="fil2" d="M11.83 7.84c0.38,-0.14 1.18,0.26 1.42,0.43 1.09,0.76 0.55,1.57 0.18,2.7 -0.15,0.46 -0.3,0.98 -0.47,1.42 -0.13,0.33 -0.53,-0.03 -0.61,-0.13 -0.3,-0.39 -0.18,-0.55 -0.23,-0.72 -0.03,-0.1 -0.21,-0.07 -0.34,-0.14 -0.29,-0.15 -0.54,-0.58 -0.42,-0.95 0.2,-0.63 0.21,-0.46 0.03,-0.65 -0.12,-0.13 -0.29,-0.43 -0.22,-0.7 0.06,-0.23 0.16,-0.48 0.24,-0.71 0.1,-0.31 0.14,-0.44 0.42,-0.54zm-5.63 -1.51c0,0 0,0 0,0l0 0zm3.74 -1.14c0.57,-0.27 1.09,-0.44 1.8,-0.52 0.24,-0.03 0.92,-0.07 1.14,-0.02 0.14,0.03 0.49,0.46 0.58,0.56 0.24,0.26 2.2,2.24 2.27,2.38 -0.86,-0.04 -1.57,0.05 -2.33,0.31 -0.18,0.06 -0.29,-0.06 -0.47,-0.13 -0.15,-0.07 -0.31,-0.13 -0.48,-0.18 -1.06,-0.31 -1.21,0.41 -1.43,1.07 -0.14,0.41 -0.24,0.63 -0.01,1.05 0.11,0.21 0.05,0.24 -0.06,0.46 -0.75,1.48 -2,2.17 -3.67,2.22 -0.76,0.02 -0.74,0.01 -1.02,-0.3l-1.94 -2.01c-0.14,-0.16 -0.57,-0.57 -0.61,-0.66 1.84,0.1 3.19,-0.35 4.15,-1.79 0.09,-0.13 0.23,-0.38 0.28,-0.54 0.42,0.06 0.55,0.07 0.88,-0.13 0.23,-0.13 0.44,-0.24 0.66,-0.37 0.78,-0.48 0.32,-1.18 0.25,-1.41zm-3.92 1.47c0.19,0.28 0.4,0.47 0.8,0.56 0.64,0.13 0.72,-0.21 1.05,-0.25 0.01,0.26 -0.57,0.97 -0.69,1.1 -0.61,0.64 -1.61,1.05 -2.56,1.1 -0.29,0.01 -0.62,0.02 -0.9,-0.02 -0.27,-0.04 -0.53,-0.1 -0.8,-0.13 0.09,0.16 2.61,2.73 2.94,3.08 0.53,0.56 0.45,0.72 1.95,0.55 0.48,-0.05 0.93,-0.18 1.35,-0.36 0.6,-0.25 1.08,-0.62 1.48,-1.1 0.06,-0.07 0.32,-0.45 0.38,-0.49 0.09,0.18 0.02,0.29 0.28,0.64 0.25,0.35 0.49,0.27 0.55,0.45 0.08,0.25 0.04,0.33 0.31,0.67 0.12,0.15 0.42,0.39 0.76,0.33 0.28,-0.05 0.35,-0.38 0.44,-0.65l0.81 -2.45c0.08,-0.32 0.03,-0.66 -0.09,-0.92 -0.14,-0.3 -0.28,-0.4 -0.47,-0.62 0.19,-0.16 1.16,-0.26 1.36,-0.27 0.71,-0.05 1.28,0.09 1.52,0.07l-2.96 -3.11c-0.5,-0.54 -0.43,-0.48 -0.88,-0.5 -0.62,-0.02 -1.23,0.04 -1.83,0.21 -0.4,0.11 -0.93,0.36 -1,0.38 -0.18,-0.18 -0.25,-0.4 -0.59,-0.67 -0.21,-0.17 -0.5,-0.34 -0.86,-0.39 -0.63,-0.08 -1.21,0.36 -1.83,0.71 -0.26,0.15 -1.46,0.8 -1.59,0.92 -0.37,0.34 -0.06,1.12 1.1,1.14z"/>
     <path id="1" class="fil3 str0" d="M11.83 7.84c0.38,-0.14 1.18,0.26 1.42,0.43 1.09,0.76 0.55,1.57 0.18,2.7 -0.15,0.46 -0.3,0.98 -0.47,1.42 -0.13,0.33 -0.53,-0.03 -0.61,-0.13 -0.3,-0.39 -0.18,-0.55 -0.23,-0.72 -0.03,-0.1 -0.21,-0.07 -0.34,-0.14 -0.29,-0.15 -0.54,-0.58 -0.42,-0.95 0.2,-0.63 0.21,-0.46 0.03,-0.65 -0.12,-0.13 -0.29,-0.43 -0.22,-0.7 0.06,-0.23 0.16,-0.48 0.24,-0.71 0.1,-0.31 0.14,-0.44 0.42,-0.54zm-5.63 -1.51c0,0 0,0 0,0m3.74 -1.14c0.57,-0.27 1.09,-0.44 1.8,-0.52 0.24,-0.03 0.92,-0.07 1.14,-0.02 0.14,0.03 0.49,0.46 0.58,0.56 0.24,0.26 2.2,2.24 2.27,2.38 -0.86,-0.04 -1.57,0.05 -2.33,0.31 -0.18,0.06 -0.29,-0.06 -0.47,-0.13 -0.15,-0.07 -0.31,-0.13 -0.48,-0.18 -1.06,-0.31 -1.21,0.41 -1.43,1.07 -0.14,0.41 -0.24,0.63 -0.01,1.05 0.11,0.21 0.05,0.24 -0.06,0.46 -0.75,1.48 -2,2.17 -3.67,2.22 -0.76,0.02 -0.74,0.01 -1.02,-0.3l-1.94 -2.01c-0.14,-0.16 -0.57,-0.57 -0.61,-0.66 1.84,0.1 3.19,-0.35 4.15,-1.79 0.09,-0.13 0.23,-0.38 0.28,-0.54 0.42,0.06 0.55,0.07 0.88,-0.13 0.23,-0.13 0.44,-0.24 0.66,-0.37 0.78,-0.48 0.32,-1.18 0.25,-1.41zm-3.92 1.47c0.19,0.28 0.4,0.47 0.8,0.56 0.64,0.13 0.72,-0.21 1.05,-0.25 0.01,0.26 -0.57,0.97 -0.69,1.1 -0.61,0.64 -1.61,1.05 -2.56,1.1 -0.29,0.01 -0.62,0.02 -0.9,-0.02 -0.27,-0.04 -0.53,-0.1 -0.8,-0.13 0.09,0.16 2.61,2.73 2.94,3.08 0.53,0.56 0.45,0.72 1.95,0.55 0.48,-0.05 0.93,-0.18 1.35,-0.36 0.6,-0.25 1.08,-0.62 1.48,-1.1 0.06,-0.07 0.32,-0.45 0.38,-0.49 0.09,0.18 0.02,0.29 0.28,0.64 0.25,0.35 0.49,0.27 0.55,0.45 0.08,0.25 0.04,0.33 0.31,0.67 0.12,0.15 0.42,0.39 0.76,0.33 0.28,-0.05 0.35,-0.38 0.44,-0.65l0.81 -2.45c0.08,-0.32 0.03,-0.66 -0.09,-0.92 -0.14,-0.3 -0.28,-0.4 -0.47,-0.62 0.19,-0.16 1.16,-0.26 1.36,-0.27 0.71,-0.05 1.28,0.09 1.52,0.07l-2.96 -3.11c-0.5,-0.54 -0.43,-0.48 -0.88,-0.5 -0.62,-0.02 -1.23,0.04 -1.83,0.21 -0.4,0.11 -0.93,0.36 -1,0.38 -0.18,-0.18 -0.25,-0.4 -0.59,-0.67 -0.21,-0.17 -0.5,-0.34 -0.86,-0.39 -0.63,-0.08 -1.21,0.36 -1.83,0.71 -0.26,0.15 -1.46,0.8 -1.59,0.92 -0.37,0.34 -0.06,1.12 1.1,1.14z"/>
    </g>
    <path class="fil4" d="M11.83 7.84c-0.28,0.1 -0.31,0.23 -0.42,0.54 -0.08,0.23 -0.18,0.48 -0.24,0.71 -0.07,0.27 0.09,0.57 0.22,0.7 0.18,0.2 0.17,0.03 -0.03,0.65 -0.12,0.37 0.13,0.8 0.42,0.95 0.13,0.07 0.31,0.05 0.34,0.14 0.05,0.16 -0.07,0.32 0.23,0.72 0.07,0.1 0.48,0.46 0.61,0.13 0.17,-0.44 0.32,-0.95 0.47,-1.42 0.38,-1.12 0.91,-1.94 -0.18,-2.7 -0.24,-0.17 -1.04,-0.57 -1.42,-0.43z"/>
    <path class="fil5" d="M5.98 14.71c0.02,0.17 0.1,0.17 0.26,0.22 0.31,0.1 0.84,0.15 1.17,0.18 0.88,0.09 2.53,0.1 3.42,0.02 0.28,-0.02 0.54,-0.04 0.82,-0.08 0.19,-0.02 0.58,-0.06 0.65,-0.24 -0.14,-0.28 -1.19,-0.37 -1.43,-0.39 -1.07,-0.12 -4.16,-0.18 -4.89,0.29z"/>
    <path class="fil4" d="M6.19 6.32c0,0 0,0 0,0z"/>
    <path class="fil4" d="M9.83 5.93c-0.05,0.29 -0.17,0.35 -0.45,0.51 -0.21,0.12 -0.44,0.26 -0.65,0.36 -0.25,0.12 -0.58,0.01 -0.73,-0.08 -0.23,-0.14 -0.06,-0.16 -0.64,0.15 -0.34,0.19 -0.81,0.02 -1.01,-0.24 -0.09,-0.12 -0.1,-0.29 -0.2,-0.3 -0.17,-0.02 -0.31,0.12 -0.75,-0.1 -0.11,-0.05 -0.54,-0.39 -0.24,-0.57 0.4,-0.25 0.88,-0.49 1.31,-0.72 1.04,-0.58 1.73,-1.25 2.68,-0.32 0.21,0.2 0.75,0.92 0.69,1.32z"/>
   </g>
  </g>
 </g>
</svg>
