<?xml version="1.0" encoding="UTF-8"?>
<!DOCTYPE svg PUBLIC "-//W3C//DTD SVG 1.1//EN" "http://www.w3.org/Graphics/SVG/1.1/DTD/svg11.dtd">
<!-- Creator: CorelDRAW 2020 (64-Bit) -->
<svg xmlns="http://www.w3.org/2000/svg" xml:space="preserve" width="4.4763mm" height="4.4762mm" version="1.1" style="shape-rendering:geometricPrecision; text-rendering:geometricPrecision; image-rendering:optimizeQuality; fill-rule:evenodd; clip-rule:evenodd"
viewBox="0 0 19.2 19.2"
 xmlns:xlink="http://www.w3.org/1999/xlink"
 xmlns:xodm="http://www.corel.com/coreldraw/odm/2003">
 <defs>
  <style type="text/css">
   <![CDATA[
    .str0 {stroke:#336666;stroke-width:0.86;stroke-miterlimit:22.9256}
    .fil1 {fill:#1FB0BA}
    .fil0 {fill:white}
   ]]>
  </style>
 </defs>
 <g id="Capa_x0020_1">
  <metadata id="CorelCorpID_0Corel-Layer"/>
  <g id="_1482273990256">
   <path class="fil0 str0" d="M15.3 7.45l1.17 -0.22 0 4.5 -1.16 0.01 -0.01 -4.29zm-6.09 -7.02l0.9 0c1.16,0.06 2.31,0.33 3.37,0.85 1.98,0.95 3.53,2.47 4.45,4.47 0.61,1.32 0.84,2.45 0.84,4.11 0,2.37 -1.14,4.7 -2.68,6.24 -0.73,0.73 -1.64,1.38 -2.64,1.84 -1.32,0.61 -2.45,0.84 -4.11,0.84 -3.45,0 -6.66,-2.25 -8.09,-5.31 -0.61,-1.32 -0.84,-2.45 -0.84,-4.11 0,-2.37 1.14,-4.7 2.68,-6.24 1.64,-1.64 3.85,-2.57 6.1,-2.68zm4.37 7.01l1.17 -0.21 0 4.51 -1.16 0 -0.01 -4.3zm-0.5 1.03l0.01 3.25c-0.01,0 -0.02,0 -0.02,0.01 -0.02,0.04 -0.46,0.02 -0.56,0.02 -0.2,0 -0.4,0.02 -0.6,-0.02 -0.04,-0.24 -0.03,-3.15 0.01,-3.3 0.1,-0.01 1.06,-0.05 1.16,0.03zm-2.3 3.27l-1.16 -0c-0.05,-0.42 -0.01,-1.12 -0.01,-1.56 -0,-1.02 0.24,-1.64 1.39,-1.76 0.47,-0.05 0.56,-0.07 0.57,0.14 0.01,0.21 0.01,0.6 -0.01,0.81 -0.62,0.13 -0.73,0.09 -0.75,0.82 -0.02,0.43 0.05,1.18 -0.02,1.56zm-1.43 0l-1.42 0c-0.16,-0.39 -0.28,-1.02 -0.54,-1.29l-0 1.29 -1.2 -0 -0.01 -4.26 1.21 -0.24 0 2.33c0.4,-0.43 0.45,-0.76 0.69,-1.12l1.35 0c-0.01,0.41 -0.8,1.58 -0.81,1.6 -0.01,0.11 0.71,1.27 0.73,1.7zm-6.91 -1.18c0.44,0.12 0.74,0.24 1.25,0.25 0.37,0.01 1.09,-0.17 0.74,-0.62 -0.22,-0.29 -1.43,0.02 -1.93,-0.93 -0.43,-0.81 0.12,-1.62 0.74,-1.86 0.83,-0.34 1.69,-0.1 2.47,0.08l-0 1.02c-0.41,-0.11 -0.71,-0.25 -1.19,-0.29 -0.73,-0.06 -1.04,0.25 -0.81,0.56 0.23,0.29 1.45,-0 2,0.94 0.2,0.33 0.22,0.81 0.04,1.19 -0.55,1.21 -2.31,0.92 -3.32,0.73l0 -1.05zm9.85 -3.55c0.74,-0.29 1.09,0.82 0.41,1.07 -0.73,0.27 -1.1,-0.8 -0.41,-1.07z"/>
   <g>
    <path class="fil1" d="M6.18 11.74l1.2 0 0 -1.29c0.26,0.26 0.38,0.9 0.54,1.29l1.42 0c-0.02,-0.43 -0.74,-1.59 -0.73,-1.7 0,-0.03 0.8,-1.2 0.81,-1.6l-1.35 0c-0.23,0.37 -0.29,0.7 -0.69,1.12l-0 -2.33 -1.21 0.24 0.01 4.26z"/>
    <path class="fil1" d="M9.61 10.17c0,0.45 -0.04,1.15 0.01,1.56l1.16 0c0.07,-0.38 0,-1.13 0.02,-1.56 0.03,-0.72 0.13,-0.69 0.75,-0.82 0.02,-0.2 0.02,-0.6 0.01,-0.81 -0.01,-0.21 -0.1,-0.19 -0.57,-0.14 -1.15,0.12 -1.39,0.74 -1.39,1.76z"/>
    <path class="fil1" d="M11.91 8.44c-0.04,0.15 -0.04,3.06 -0.01,3.3 0.19,0.03 0.4,0.02 0.6,0.02 0.09,0 0.54,0.02 0.56,-0.02 0,-0.01 0.02,-0.01 0.02,-0.01l-0.01 -3.25c-0.1,-0.08 -1.07,-0.04 -1.16,-0.03z"/>
    <path class="fil1" d="M12.29 7.01c-0.69,0.27 -0.32,1.34 0.41,1.07 0.68,-0.25 0.33,-1.37 -0.41,-1.07z"/>
    <polygon class="fil1" points="13.58,7.44 13.59,11.74 14.75,11.74 14.75,7.23 "/>
    <polygon class="fil1" points="15.3,7.45 15.31,11.74 16.47,11.73 16.47,7.23 "/>
    <path class="fil1" d="M5.76 10.88c0.17,-0.38 0.15,-0.85 -0.04,-1.18 -0.55,-0.94 -1.78,-0.65 -2,-0.94 -0.24,-0.3 0.07,-0.61 0.81,-0.56 0.48,0.04 0.78,0.18 1.19,0.29l0 -1.02c-0.79,-0.18 -1.64,-0.42 -2.47,-0.08 -0.61,0.25 -1.17,1.05 -0.74,1.86 0.51,0.96 1.71,0.65 1.93,0.93 0.35,0.45 -0.37,0.62 -0.74,0.62 -0.51,-0.01 -0.82,-0.12 -1.25,-0.25l0 1.05c1.01,0.18 2.77,0.47 3.32,-0.73z"/>
   </g>
  </g>
 </g>
</svg>
