<?xml version="1.0" encoding="UTF-8"?>
<!DOCTYPE svg PUBLIC "-//W3C//DTD SVG 1.1//EN" "http://www.w3.org/Graphics/SVG/1.1/DTD/svg11.dtd">
<!-- Creator: CorelDRAW 2020 (64-Bit) -->
<svg xmlns="http://www.w3.org/2000/svg" xml:space="preserve" width="4.4738mm" height="4.4762mm" version="1.1" style="shape-rendering:geometricPrecision; text-rendering:geometricPrecision; image-rendering:optimizeQuality; fill-rule:evenodd; clip-rule:evenodd"
viewBox="0 0 19.18 19.19"
 xmlns:xlink="http://www.w3.org/1999/xlink"
 xmlns:xodm="http://www.corel.com/coreldraw/odm/2003">
 <defs>
  <style type="text/css">
   <![CDATA[
    .str0 {stroke:#336666;stroke-width:0.86;stroke-miterlimit:22.9256}
    .fil1 {fill:#1FB0BA}
    .fil0 {fill:white}
   ]]>
  </style>
 </defs>
 <g id="Capa_x0020_1">
  <metadata id="CorelCorpID_0Corel-Layer"/>
  <g id="_1482273992080">
   <path class="fil0 str0" d="M8.1 15.13c-0.08,-0.34 0.19,-0.54 0.53,-0.46 1.82,0.43 2.45,-0.41 2.55,0.28 0.12,0.77 -1.83,0.65 -2.4,0.53 -0.29,-0.06 -0.61,-0.1 -0.68,-0.36zm-0.52 -10.23c1.2,0.12 1.18,0.3 2.01,0.8 0.25,-0.14 0.38,-0.33 0.85,-0.54 0.48,-0.21 0.62,-0.18 1.15,-0.27 -0.44,-0.36 -1.27,-0.63 -2,-0.63 -0.66,-0 -1.66,0.28 -2.01,0.64zm-0.01 6.79c-0.04,-0.65 -0.17,-0.71 -0.08,-1.64 0.05,-0.53 0.17,-1.03 0.33,-1.5 0.33,-0.98 0.8,-1.67 1.31,-2.3l-0.17 -0.16c-0.07,-0.05 -0.14,-0.09 -0.2,-0.13 -1.27,-0.82 -2.46,-0.16 -2.59,1.6 -0.09,1.14 0.28,2.36 0.83,3.3 0.13,0.23 0.41,0.7 0.58,0.83zm2.56 -5.49c0.04,0.12 0.29,0.4 0.39,0.53 0.37,0.5 0.71,1.18 0.93,1.8 0.4,1.14 0.42,1.89 0.26,3.14 0.01,-0.01 0.02,-0.03 0.02,-0.02 0,0.01 0.02,-0.02 0.02,-0.02 0,-0 0.02,-0.01 0.02,-0.02l0.1 -0.12c0.79,-1.11 1.34,-2.5 1.23,-3.92 -0.07,-0.84 -0.38,-1.54 -0.93,-1.82 -0.36,-0.18 -0.76,-0.17 -1.15,-0.04 -0.16,0.05 -0.33,0.14 -0.46,0.21 -0.17,0.1 -0.29,0.21 -0.43,0.28zm-2.05 4.45c0,2.16 1.39,2.79 2.29,2.02 0.27,-0.23 0.47,-0.59 0.59,-1.05 0.24,-0.94 0.07,-1.99 -0.2,-2.86 -0.18,-0.57 -0.78,-1.79 -1.18,-2.09 -0.32,0.24 -0.82,1.15 -1.03,1.68 -0.28,0.7 -0.47,1.46 -0.47,2.3zm-2.55 -2.24c-0.34,-4.55 4.88,-6.35 7.34,-3.17 1.56,2.02 0.85,5.09 -0.55,6.8 -0.52,0.63 -1.52,1.8 -2.91,1.65 -2.09,-0.22 -3.72,-3.18 -3.88,-5.28zm3.87 -7.94c-0.08,0.02 -0.43,-0.01 -0.56,0 -2.25,0.18 -4.29,1.19 -5.85,2.77 -0.11,0.11 -0.15,0.19 -0.26,0.3 -0.1,0.1 -0.17,0.19 -0.26,0.3 -0.95,1.18 -1.5,2.37 -1.85,3.89 -0.42,1.82 -0.15,4.15 0.69,5.8 0.34,0.67 0.83,1.52 1.35,2.08 0.19,0.21 0.36,0.4 0.56,0.6 0.11,0.11 0.19,0.14 0.3,0.26 1.01,1.03 2.82,1.8 4.19,2.11 0.91,0.21 2.19,0.25 3.12,0.11 0.94,-0.14 1.85,-0.38 2.67,-0.79 0.67,-0.34 0.81,-0.42 1.43,-0.84 0.38,-0.26 0.93,-0.75 1.24,-1.07 1.19,-1.21 1.99,-2.83 2.37,-4.49 0.42,-1.82 0.15,-4.15 -0.69,-5.8 -0.34,-0.67 -0.42,-0.81 -0.84,-1.43 -0.26,-0.38 -0.75,-0.93 -1.07,-1.24 -1.21,-1.19 -2.83,-1.99 -4.49,-2.37 -0.55,-0.13 -1.22,-0.16 -1.81,-0.21 -0.02,-0 -0.12,-0 -0.14,0l-0.11 0.04z"/>
   <path class="fil1" d="M11.18 14.95c-0.11,-0.69 -0.73,0.15 -2.55,-0.28 -0.34,-0.08 -0.61,0.12 -0.53,0.46 0.07,0.26 0.38,0.3 0.68,0.36 0.57,0.11 2.52,0.24 2.4,-0.54z"/>
   <path class="fil1" d="M8.56 8.35c0.21,-0.53 0.71,-1.44 1.03,-1.68 0.4,0.3 1,1.53 1.18,2.09 0.28,0.87 0.45,1.92 0.2,2.86 -0.12,0.47 -0.32,0.82 -0.59,1.05 -0.9,0.76 -2.29,0.13 -2.29,-2.02 0,-0.84 0.19,-1.6 0.47,-2.3zm-3.02 0.06c0.16,2.09 1.79,5.06 3.88,5.28 1.39,0.15 2.4,-1.02 2.91,-1.65 1.4,-1.7 2.1,-4.78 0.55,-6.8 -2.45,-3.18 -7.68,-1.39 -7.34,3.17zm6.17 3.26c0.16,-1.25 0.14,-2 -0.26,-3.14 -0.21,-0.61 -0.56,-1.29 -0.93,-1.8 -0.1,-0.13 -0.35,-0.41 -0.39,-0.53 0.15,-0.06 0.26,-0.18 0.43,-0.28 0.13,-0.07 0.3,-0.16 0.46,-0.21 0.39,-0.13 0.79,-0.14 1.15,0.04 0.55,0.28 0.87,0.97 0.93,1.82 0.11,1.42 -0.44,2.81 -1.23,3.92l-0.1 0.13c-0.01,0.01 -0.02,0.02 -0.02,0.02 -0.01,0.01 -0.02,0.03 -0.02,0.02 -0,-0.01 -0.02,0.01 -0.02,0.02zm-2.57 -5.42c-0.52,0.63 -0.98,1.32 -1.31,2.3 -0.16,0.48 -0.28,0.97 -0.33,1.5 -0.09,0.92 0.04,0.99 0.08,1.64 -0.16,-0.13 -0.44,-0.6 -0.58,-0.83 -0.55,-0.94 -0.91,-2.16 -0.83,-3.3 0.14,-1.76 1.33,-2.42 2.59,-1.6 0.07,0.04 0.14,0.09 0.2,0.13l0.17 0.16zm0.45 -0.55c-0.83,-0.5 -0.82,-0.68 -2.01,-0.8 0.35,-0.36 1.35,-0.64 2.01,-0.64 0.73,0 1.56,0.27 2,0.63 -0.53,0.09 -0.67,0.06 -1.15,0.27 -0.47,0.21 -0.6,0.39 -0.85,0.54z"/>
  </g>
 </g>
</svg>
