<?xml version="1.0" encoding="UTF-8"?>
<!DOCTYPE svg PUBLIC "-//W3C//DTD SVG 1.1//EN" "http://www.w3.org/Graphics/SVG/1.1/DTD/svg11.dtd">
<!-- Creator: CorelDRAW 2020 (64-Bit) -->
<svg xmlns="http://www.w3.org/2000/svg" xml:space="preserve" width="4.4763mm" height="4.4763mm" version="1.1" style="shape-rendering:geometricPrecision; text-rendering:geometricPrecision; image-rendering:optimizeQuality; fill-rule:evenodd; clip-rule:evenodd"
viewBox="0 0 19.2 19.2"
 xmlns:xlink="http://www.w3.org/1999/xlink"
 xmlns:xodm="http://www.corel.com/coreldraw/odm/2003">
 <defs>
  <style type="text/css">
   <![CDATA[
    .str0 {stroke:#336666;stroke-width:0.86;stroke-miterlimit:22.9256}
    .fil1 {fill:#1FB0BA}
    .fil0 {fill:white}
   ]]>
  </style>
 </defs>
 <g id="Capa_x0020_1">
  <metadata id="CorelCorpID_0Corel-Layer"/>
  <g id="_1483792029936">
   <path class="fil0 str0" d="M9.6 18.77c5.07,0 9.17,-4.11 9.17,-9.17 0,-5.07 -4.11,-9.17 -9.17,-9.17 -5.07,0 -9.17,4.11 -9.17,9.17 0,5.07 4.11,9.17 9.17,9.17zm-0.92 -13.94c-0.46,0 -0.65,-0.07 -1.13,-0.07 -2.06,0 -1.66,-0.07 -1.66,0.27l0 1.39c0,0.28 -0.31,0.27 0.8,0.27l3.78 0c-0.46,0.68 -1.78,2.25 -2.41,3.1l-1.8 2.31c-0.74,0.98 -0.57,0.4 -0.57,2.35l2.98 0 0 1.79 1.79 0 0 -1.79 3.05 0c0,-0.64 -0.32,-0.5 -0.77,-1.41 -0.1,-0.19 -0.13,-0.33 -0.22,-0.51l-3.98 0c0.17,-0.31 0.34,-0.48 0.56,-0.77 0.22,-0.29 0.38,-0.5 0.61,-0.79l2.43 -3.14c0.11,-0.14 0.18,-0.23 0.29,-0.38 1.07,-1.43 0.89,-0.72 0.89,-2.62l-2.85 0 0 -1.86 -1.79 0 0 1.86z"/>
   <path class="fil1" d="M9.71 10.97l2.43 -3.14c0.11,-0.14 0.18,-0.23 0.29,-0.38 1.07,-1.43 0.89,-0.72 0.89,-2.62l-2.85 0 0 -1.86 -1.79 0 0 1.86c-0.46,0 -0.65,-0.07 -1.13,-0.07 -2.06,0 -1.66,-0.07 -1.66,0.27l0 1.39c0,0.28 -0.31,0.27 0.8,0.27l3.78 0c-0.46,0.68 -1.78,2.25 -2.41,3.1l-1.8 2.31c-0.74,0.99 -0.57,0.4 -0.57,2.35l2.98 0 0 1.79 1.79 0 0 -1.79 3.05 0c0,-0.64 -0.32,-0.5 -0.77,-1.41 -0.1,-0.19 -0.13,-0.33 -0.22,-0.51l-3.98 0c0.17,-0.31 0.34,-0.48 0.56,-0.77 0.22,-0.29 0.38,-0.5 0.61,-0.79z"/>
  </g>
 </g>
</svg>
